<?xml version="1.0" standalone="no"?>
<!DOCTYPE svg PUBLIC "-//W3C//DTD SVG 1.1//EN" "http://www.w3.org/Graphics/SVG/1.1/DTD/svg11.dtd" >
<svg xmlns="http://www.w3.org/2000/svg">
<metadata>
This is a custom SVG webfont generated by Font Squirrel.
Copyright   : 2005 AlbertJan Pool published by FSI Fonts und Software GmbH
Designer    : AlbertJan Pool
Foundry     : FSI Fonts und Software GmbH
Foundry URL : httpwwwfontfontcom
</metadata>
<defs>
<font id="webfont8muXTokY" horiz-adv-x="1138" >
<font-face units-per-em="2048" ascent="1565" descent="-483" />
<missing-glyph horiz-adv-x="454" />
<glyph unicode=" "  horiz-adv-x="454" />
<glyph unicode="&#x09;" horiz-adv-x="454" />
<glyph unicode="&#xa0;" horiz-adv-x="454" />
<glyph unicode="!" horiz-adv-x="749" d="M627 1458l-90 -973h-242l-90 973h422zM588 0h-344v330h344v-330z" />
<glyph unicode="&#x22;" horiz-adv-x="999" d="M883 979h-301v479h301v-479zM418 979h-301v479h301v-479z" />
<glyph unicode="#" horiz-adv-x="1460" d="M1364 844h-170l-27 -180h119v-318h-170l-55 -346h-356l55 346h-185l-55 -346h-356l55 346h-119v318h170l27 180h-119v317h170l49 314h357l-49 -314h184l49 314h356l-49 -314h119v-317zM838 844h-185l-26 -180h184z" />
<glyph unicode="$" horiz-adv-x="1296" d="M1208 446q0 -184 -121.5 -300.5t-316.5 -147.5v-231h-258v221q-324 10 -502 192l230 230q98 -98 313 -103v271l-80 10q-190 25 -293 129q-100 102 -100 293q0 180 115.5 304t316.5 150v187h258v-183q260 -16 416 -172l-225 -225q-74 74 -232 84v-256l84 -12 q193 -27 287 -121q108 -107 108 -320zM856 438q0 57 -29 86q-29 31 -98 39v-250q127 25 127 125zM553 911v242q-63 -12 -95 -49t-32 -82q0 -39 29 -68q35 -35 98 -43z" />
<glyph unicode="%" horiz-adv-x="1755" d="M1663 272q0 -137 -89 -210.5t-220 -73.5t-220.5 73.5t-89.5 210.5v195q0 137 89.5 211t220.5 74t220 -74t89 -211v-195zM711 991q0 -137 -89.5 -210.5t-220.5 -73.5t-220 73.5t-89 210.5v195q0 137 89 210.5t220 73.5t220.5 -73.5t89.5 -210.5v-195zM1354 1458 l-695 -1458h-258l695 1458h258zM473 999v179q0 80 -71.5 79.5t-71.5 -79.5v-179q0 -80 71.5 -80t71.5 80zM1425 281v178q0 80 -71.5 80t-71.5 -80v-178q0 -80 71.5 -80t71.5 80z" />
<glyph unicode="&#x26;" horiz-adv-x="1454" d="M1454 0h-422l-92 106q-53 -39 -81 -57t-101.5 -39.5t-163.5 -21.5q-494 0 -494 454q0 211 232 365q-137 154 -137 301q0 166 111.5 264t316.5 98q190 0 298.5 -101t108.5 -265q0 -141 -143 -250q-66 -51 -103 -76l172 -198q55 63 68 211h315q-23 -295 -170 -457zM737 344 l-227 260q-86 -59 -86 -160q0 -66 50 -109.5t120 -43.5q82 0 143 53zM715 1102q0 39 -23.5 62.5t-68.5 23.5q-92 0 -93 -88q0 -41 78 -119l49 35q58 41 58 86z" />
<glyph unicode="'" horiz-adv-x="536" d="M420 979h-303v479h303v-479z" />
<glyph unicode="(" horiz-adv-x="733" d="M633 33l-225 -226l-35 35l-38 38q-9 9 -33 35l-37 41q-13 15 -29.5 38.5t-28.5 44.5q-59 98 -60 295v790q0 197 60 295q12 20 28.5 44t29.5 39l37 41q24 26 33 35l38 38l35 35l225 -226q-84 -84 -117 -137q-33 -55 -33 -176v-766q0 -121 33 -176q33 -53 117 -137z" />
<glyph unicode=")" horiz-adv-x="733" d="M586 334q0 -197 -60 -295q-12 -20 -28.5 -44t-29.5 -39l-37 -41q-24 -26 -33 -35l-38 -38l-34 -35l-226 226q84 84 117 137q33 55 33 176v766q0 121 -33 176q-33 53 -117 137l226 226l34 -35l38 -38q9 -9 33 -35l37 -41q13 -15 29.5 -38.5t28.5 -44.5q59 -98 60 -295 v-790z" />
<glyph unicode="*" horiz-adv-x="1036" d="M940 928l-115 -199l-202 131l10 -242h-230l11 242l-203 -131l-115 199l215 110l-215 111l115 199l203 -131l-11 241h230l-10 -241l202 131l115 -199l-215 -111z" />
<glyph unicode="+" d="M1038 422h-311v-311h-315v311h-312v315h312v312h315v-312h311v-315z" />
<glyph unicode="," horiz-adv-x="589" d="M473 -102l-356 -263v721h356v-458z" />
<glyph unicode="-" horiz-adv-x="872" d="M772 446h-672v316h672v-316z" />
<glyph unicode="." horiz-adv-x="602" d="M485 0h-368v369h368v-369z" />
<glyph unicode="/" horiz-adv-x="882" d="M895 1610l-584 -1762h-311l584 1762h311z" />
<glyph unicode="0" d="M1038 442q0 -215 -137 -334.5t-331.5 -119.5t-332 119.5t-137.5 334.5v574q0 215 137.5 334.5t332 119.5t331.5 -119.5t137 -334.5v-574zM702 440v576q0 74 -37.5 112.5t-95 38.5t-95.5 -38.5t-38 -112.5v-576q0 -74 38 -111.5t95.5 -37.5t95 37.5t37.5 111.5z" />
<glyph unicode="1" d="M831 0h-335v1100l-312 -271v359l312 270h335v-1458z" />
<glyph unicode="2" d="M1047 0h-938v303l528 574q74 80 74 155q0 61 -34 98t-97 37q-55 0 -95.5 -32.5t-40.5 -108.5h-335q0 207 136 325.5t335 118.5q207 0 337 -118.5t130 -321.5q0 -106 -41 -180t-140 -178l-348 -369h529v-303z" />
<glyph unicode="3" d="M1057 436q0 -217 -139.5 -332.5t-346.5 -115.5q-129 0 -234.5 44t-178 150.5t-72.5 261.5h336q0 -74 42 -113.5t107 -39.5q68 0 109 40t41 115q0 66 -44 110t-112 44h-47v291h47q70 0 105 41t35 96q0 66 -39 102.5t-94.5 36.5t-94.5 -36.5t-39 -100.5h-336 q0 201 134.5 320.5t334.5 119.5q203 0 336 -121.5t133 -310t-151 -284.5q168 -117 168 -318z" />
<glyph unicode="4" d="M1085 193h-108v-193h-320v193h-604v319l484 946h368l-483 -946h235v193h320v-193h108v-319z" />
<glyph unicode="5" d="M1049 498q0 -137 -29 -221t-107 -164q-125 -125 -338 -125q-219 0 -346 127q-49 49 -77.5 110.5t-35.5 106.5t-14 112h336q16 -154 137 -153q57 0 95 37q43 43 43 170q0 115 -35 161t-103 46q-35 0 -60.5 -10.5t-40.5 -29t-21.5 -31.5t-14.5 -34h-309v858h889v-303h-584 v-225q74 57 197 57q180 0 282 -102q82 -82 109 -174t27 -213z" />
<glyph unicode="6" d="M1049 457q0 -223 -139.5 -346t-346.5 -123t-346 122.5t-139 346.5q0 70 24.5 152.5t44.5 125.5l70 146l281 577h368l-288 -571q29 10 81 10q147 0 268.5 -118.5t121.5 -321.5zM713 457q0 78 -43 122t-106.5 44t-106.5 -44t-43 -122t43 -122t106.5 -44t106.5 44t43 122z " />
<glyph unicode="7" d="M1069 1155l-455 -1155h-368l454 1155h-311v-229h-319v532h999v-303z" />
<glyph unicode="8" d="M1059 436q0 -217 -138.5 -332.5t-351.5 -115.5t-351 115.5t-138 332.5q0 84 33.5 155t60.5 97.5t70 61.5q-150 125 -150 288q0 199 139.5 315.5t336 116.5t335.5 -116.5t139 -315.5q0 -164 -149 -288q43 -35 69.5 -61.5t60.5 -97.5t34 -155zM723 444.5q0 63.5 -45 108.5 t-108.5 45t-108.5 -45t-45 -108.5t45 -108.5t108.5 -45t108.5 45t45 108.5zM709 1028q0 57 -41 98t-98.5 41t-98.5 -41t-41 -98t41 -98t98.5 -41t98.5 41t41 98z" />
<glyph unicode="9" d="M1061 1001q0 -70 -24.5 -152.5t-45.5 -125.5l-69 -145l-281 -578h-369l289 571q-29 -10 -82 -10q-147 0 -268 119t-121 321q0 223 139.5 346t346 123t346 -123t139.5 -346zM725 1001.5q0 77.5 -43 121.5t-106.5 44t-106.5 -44t-43 -121.5t43 -121.5t106.5 -44t106.5 44 t43 121.5z" />
<glyph unicode=":" horiz-adv-x="649" d="M532 518h-368v369h368v-369zM532 0h-368v369h368v-369z" />
<glyph unicode=";" horiz-adv-x="649" d="M526 -102l-356 -263v721h356v-458zM532 518h-368v369h368v-369z" />
<glyph unicode="&#x3c;" d="M1030 53l-921 406v291l921 405v-354l-481 -197l481 -196v-355z" />
<glyph unicode="=" d="M1038 696h-938v316h938v-316zM1038 197h-938v315h938v-315z" />
<glyph unicode="&#x3e;" d="M1030 459l-921 -406v355l481 196l-481 197v354l921 -405v-291z" />
<glyph unicode="?" horiz-adv-x="1101" d="M1040 1040q0 -127 -104 -262l-141 -178q-37 -45 -37 -96v-19h-336v47q0 129 84 228l143 168q55 63 56 114q0 55 -32 90t-91 35q-123 0 -123 -129h-336q0 201 132 316.5t327 115.5q193 0 325.5 -113.5t132.5 -316.5zM762 0h-344v330h344v-330z" />
<glyph unicode="@" horiz-adv-x="1605" d="M1505 -8l-309 8v82q-98 -94 -231 -94q-152 0 -246 90q-66 61 -82 143t-16 242t16 240.5t82 144.5q94 90 244 90q135 0 223 -84v53q0 129 -65.5 194.5t-194.5 65.5h-246q-129 0 -194.5 -65.5t-65.5 -194.5v-536q0 -61 16.5 -98t57.5 -78l-232 -232q-88 88 -125 171 t-37 216v570q0 147 29 246.5t102.5 173t175 102t250.5 28.5h291q147 0 248.5 -27.5t177.5 -103.5q74 -74 102.5 -173t28.5 -246v-928zM1186 462.5q0 106.5 -30 151.5t-93.5 45t-93 -45t-29.5 -151.5t29.5 -151.5t93 -45t93.5 45t30 151.5z" />
<glyph unicode="A" horiz-adv-x="1337" d="M1337 0h-374l-68 217h-449l-71 -217h-375l530 1458h277zM801 516l-123 389l-131 -389h254z" />
<glyph unicode="B" horiz-adv-x="1337" d="M1237 430q0 -203 -127 -316.5t-328 -113.5h-635v1458h605q223 0 344 -114.5t121 -307.5q0 -180 -160 -288q33 -20 55.5 -38t55 -56t51 -95t18.5 -129zM879 450.5q0 53.5 -32 90.5t-99 37h-242v-256h242q68 0 99.5 37.5t31.5 91zM858 1018q0 49 -30.5 84t-98.5 35h-223 v-238h223q68 0 98.5 35t30.5 84z" />
<glyph unicode="C" horiz-adv-x="1247" d="M1206 463q-39 -233 -188.5 -354t-364.5 -121q-242 0 -405 164q-45 45 -75 102t-44 100t-21.5 125t-7.5 116v134v134q0 34 7.5 116t21.5 125t44 100.5t75 102.5q164 164 405 163q215 0 364.5 -120.5t188.5 -354.5h-364q-43 156 -187 156q-94 0 -141 -61q-29 -37 -42 -108 t-13 -253t13 -252.5t42 -107.5q47 -61 141 -62q143 0 187 156h364z" />
<glyph unicode="D" horiz-adv-x="1333" d="M1233 729v-74v-74q0 -19 -1 -66.5t-6 -69t-11.5 -61.5t-18.5 -66l-28 -58q-15 -33 -36.5 -60.5t-50.5 -56.5q-143 -143 -393 -143h-541v1458h541q250 0 393 -143q31 -31 55.5 -67t40 -62.5t26.5 -72.5t17.5 -66.5t9.5 -79t3 -71.5v-85v-82zM874 729q0 176 -8 235.5 t-30 92.5q-55 82 -172 82h-158v-820h158q117 0 172 82q23 33 30.5 92.5t7.5 235.5z" />
<glyph unicode="E" horiz-adv-x="1245" d="M1139 0h-992v1458h992v-319h-633v-244h541v-320h-541v-256h633v-319z" />
<glyph unicode="F" horiz-adv-x="1220" d="M1139 1139h-633v-256h541v-320h-541v-563h-359v1458h992v-319z" />
<glyph unicode="G" horiz-adv-x="1325" d="M1225 637q0 -180 -33 -290.5t-115 -194.5q-158 -164 -424 -164q-242 0 -405 164q-45 45 -75 102t-44 100t-21.5 125t-7.5 116v134v134q0 34 7.5 116t21.5 125t44 100.5t75 102.5q164 164 405 163q260 0 399.5 -139t170.5 -344h-361q-23 86 -71 125t-138 39 q-92 0 -141 -64q-29 -37 -41 -105.5t-12 -252.5t12 -253.5t41 -106.5q47 -61 141 -62q106 0 160 58q55 55 55 155v21h-215v299h572v-203z" />
<glyph unicode="H" horiz-adv-x="1392" d="M1245 0h-358v578h-381v-578h-359v1458h359v-561h381v561h358v-1458z" />
<glyph unicode="I" horiz-adv-x="653" d="M506 0h-359v1458h359v-1458z" />
<glyph unicode="J" horiz-adv-x="1056" d="M930 500q0 -244 -163 -378t-386 -134q-129 0 -219 35.5t-178 123.5l235 234q74 -74 162 -74t139 50.5t51 150.5v950h359v-958z" />
<glyph unicode="K" horiz-adv-x="1378" d="M1378 0h-417l-336 598l-123 -141v-457h-355v1458h355v-516l422 516h438l-498 -590z" />
<glyph unicode="L" horiz-adv-x="1179" d="M1118 0h-971v1458h359v-1139h612v-319z" />
<glyph unicode="M" horiz-adv-x="1654" d="M1507 0h-358v698l-207 -360h-229l-207 360v-698h-359v1458h353l327 -643l328 643h352v-1458z" />
<glyph unicode="N" horiz-adv-x="1433" d="M1286 0h-313l-467 733v-733h-359v1458h314l467 -733v733h358v-1458z" />
<glyph unicode="O" horiz-adv-x="1310" d="M1210 729v-134q0 -34 -7 -116t-21.5 -125t-44 -100t-74.5 -102q-164 -164 -407.5 -164t-407.5 164q-45 45 -75 102t-44 100t-21.5 125t-7.5 116v134v134q0 34 7.5 116t21.5 125t44 100.5t75 102.5q164 164 407.5 163.5t407.5 -163.5q45 -45 74.5 -102.5t44 -100.5 t21.5 -125t7 -116v-134zM852 729q0 184 -12.5 253t-40.5 105q-49 63 -143.5 63.5t-143.5 -63.5q-29 -37 -41 -105.5t-12 -252.5t12 -251.5t41 -104.5q49 -66 143.5 -66t143.5 66q29 37 41 104.5t12 251.5z" />
<glyph unicode="P" horiz-adv-x="1284" d="M1223 989.5q0 -192.5 -133.5 -331t-364.5 -138.5h-219v-520h-359v1458h578q231 0 364.5 -138t133.5 -330.5zM864 989.5q0 59.5 -43 103.5t-112 44h-203v-295h203q70 0 112.5 44t42.5 103.5z" />
<glyph unicode="Q" horiz-adv-x="1310" d="M1233 125l-182 -182l-113 112q-117 -68 -283 -67q-244 0 -407 164q-45 45 -75 102t-44 100t-21.5 125t-7.5 116v134v134q0 34 7.5 116t21.5 125t44 100.5t75 102.5q164 164 407.5 163.5t407.5 -163.5q45 -45 74.5 -102.5t44 -100.5t21.5 -125t7 -116v-134 q0 -131 -2 -187.5t-21.5 -150.5t-60.5 -160zM852 729q0 184 -12.5 253t-40.5 105q-49 63 -143.5 63.5t-143.5 -63.5q-29 -37 -41 -105.5t-12 -252.5t12 -251.5t41 -104.5q49 -66 143 -66q18 0 29 2l-92 92l182 183l70 -70q8 98 8 215z" />
<glyph unicode="R" horiz-adv-x="1335" d="M1300 0h-415l-258 543h-121v-543h-359v1458h578q231 0 364.5 -138t133.5 -331q0 -137 -70 -234.5t-168 -146.5zM864 989.5q0 59.5 -43 103.5t-112 44h-203v-295h203q70 0 112.5 44t42.5 103.5z" />
<glyph unicode="S" horiz-adv-x="1214" d="M1126 446q0 -215 -160.5 -336.5t-402.5 -121.5q-180 0 -314 42t-239 150l230 230q102 -102 325 -103q209 0 209 131q0 55 -29 86q-31 31 -96 39l-176 25q-195 29 -293 129q-100 102 -100 293q0 203 144.5 331.5t387.5 128.5q317 0 492 -174l-225 -225q-43 43 -104.5 63.5 t-88.5 21.5t-84 1q-86 0 -131 -41t-45 -94q0 -39 29 -68q35 -35 100 -43l176 -24q193 -27 287 -121q108 -107 108 -320z" />
<glyph unicode="T" horiz-adv-x="1198" d="M1137 1139h-359v-1139h-358v1139h-359v319h1076v-319z" />
<glyph unicode="U" horiz-adv-x="1351" d="M1229 512q0 -233 -161 -378.5t-394.5 -145.5t-392 145.5t-158.5 378.5v946h358v-938q0 -100 51.5 -156.5t141.5 -56.5t143 56.5t53 156.5v938h359v-946z" />
<glyph unicode="V" horiz-adv-x="1230" d="M1231 1458l-483 -1458h-267l-481 1458h371l245 -815l242 815h373z" />
<glyph unicode="W" horiz-adv-x="1855" d="M1855 1458l-399 -1458h-293l-235 719l-236 -719h-291l-401 1458h375l190 -770l236 770h254l235 -770l191 770h374z" />
<glyph unicode="X" horiz-adv-x="1298" d="M1298 0h-409l-240 449l-239 -449h-410l455 748l-426 710h407l213 -411l213 411h408l-426 -710z" />
<glyph unicode="Y" horiz-adv-x="1239" d="M1239 1458l-440 -864v-594h-359v594l-440 864h391l230 -524l227 524h391z" />
<glyph unicode="Z" horiz-adv-x="1112" d="M1051 0h-990v279l560 860h-535v319h965v-278l-562 -861h562v-319z" />
<glyph unicode="[" horiz-adv-x="851" d="M770 -152h-623v1762h623v-303h-287v-1155h287v-304z" />
<glyph unicode="\" horiz-adv-x="882" d="M883 -152h-312l-571 1725h311z" />
<glyph unicode="]" horiz-adv-x="851" d="M705 -152h-623v304h287v1155h-287v303h623v-1762z" />
<glyph unicode="^" horiz-adv-x="1310" d="M1194 768h-354l-185 338l-184 -338h-354l383 707h311z" />
<glyph unicode="_" horiz-adv-x="1310" d="M1311 -381h-1311v221h1311v-221z" />
<glyph unicode="`" horiz-adv-x="1024" d="M631 1249h-203l-242 369h344z" />
<glyph unicode="a" horiz-adv-x="1097" d="M989 0h-327v90q-53 -53 -107.5 -76.5t-138.5 -23.5q-166 0 -264 98q-96 96 -97 258q0 135 95.5 227.5t279.5 92.5h223v28q0 74 -39 105.5t-127 31.5q-61 0 -98 -16t-78 -57l-209 209q84 84 172 115.5t230 31.5q485 0 485 -399v-715zM653 414v28h-170q-49 0 -77.5 -24.5 t-28.5 -63.5t28.5 -65.5t81.5 -26.5q90 0 134 41q32 31 32 111z" />
<glyph unicode="b" horiz-adv-x="1165" d="M1077 551v-25q0 -106 -3 -165.5t-27.5 -142.5t-71.5 -130q-100 -100 -268 -100q-152 0 -254 102v-90h-326v1458h336v-436q92 92 246 92q166 0 266 -100q39 -39 61.5 -89.5t30.5 -129t9 -112.5t1 -132zM741 551q0 137 -26.5 198.5t-112.5 61.5t-112.5 -61.5t-26.5 -198.5 t26.5 -198.5t112.5 -61.5t112.5 61.5t26.5 198.5z" />
<glyph unicode="c" horiz-adv-x="972" d="M936 129q-141 -141 -363 -141q-66 0 -126 11t-129.5 48t-121 96.5t-85 165t-33.5 242.5t33.5 242.5t85 165t121 96.5t130 48t125.5 11q221 0 363 -141l-227 -228q-66 66 -136 66q-61 0 -104 -43q-55 -57 -55 -217t55 -217q43 -43 104 -43q70 0 136 65z" />
<glyph unicode="d" horiz-adv-x="1165" d="M1038 0h-325v90q-102 -102 -254 -102q-168 0 -269 100q-39 39 -61.5 89t-30.5 129t-9 113t-1 132v24q0 106 3 166t27.5 143t71.5 130q100 100 267 100q154 0 245 -92v436h336v-1458zM702 551q0 137 -26.5 198.5t-112.5 61.5t-112.5 -61.5t-26.5 -198.5t26.5 -198.5 t112.5 -61.5t112.5 61.5t26.5 198.5z" />
<glyph unicode="e" horiz-adv-x="1144" d="M1067 442h-659q0 -72 52 -122t142 -50q82 0 130 21.5t97 70.5l201 -200q-90 -90 -186 -132t-242 -42q-524 0 -524 563q0 264 136 413.5t357 149.5q231 0 363.5 -148.5t132.5 -373.5v-150zM735 666q0 49 -18 86q-37 86 -145.5 86t-145.5 -86q-18 -37 -18 -86h327z" />
<glyph unicode="f" horiz-adv-x="733" d="M682 801h-184v-801h-336v801h-101v258h101v96q0 129 86 227.5t256 98.5h178v-283h-117q-68 0 -67 -68v-71h184v-258z" />
<glyph unicode="g" horiz-adv-x="1148" d="M1022 80q0 -197 -137 -323t-361 -126q-137 0 -235.5 32t-177.5 112l208 209q70 -70 189 -70q96 0 137 51t41 117v80q-92 -92 -237 -92q-160 0 -259 98q-70 70 -86 158t-16 266t16.5 266t85.5 158q98 98 261 98q143 0 245 -102v90h326v-1022zM686 592q0 51 -3 83 t-15.5 66.5t-40 52t-72.5 17.5t-72.5 -17.5t-40 -52t-15.5 -66.5t-3 -83t3 -83t15.5 -66.5t40 -52t72.5 -17.5t72.5 17.5t40 52t15.5 66.5t3 83z" />
<glyph unicode="h" horiz-adv-x="1173" d="M1057 0h-336v668q0 78 -42 110.5t-87 32.5t-87 -33t-42 -110v-668h-336v1458h336v-446q102 102 242 102q172 0 262 -111.5t90 -287.5v-715z" />
<glyph unicode="i" horiz-adv-x="589" d="M463 0h-336v1059h336v-1059zM463 1214h-336v256h336v-256z" />
<glyph unicode="j" horiz-adv-x="589" d="M463 -43q0 -129 -86 -227.5t-256 -98.5h-178v283h116q68 0 68 68v1077h336v-1102zM463 1214h-336v256h336v-256z" />
<glyph unicode="k" horiz-adv-x="1173" d="M1174 0h-416l-230 403l-65 -71v-332h-336v1458h336v-741l297 385h403l-405 -457z" />
<glyph unicode="l" horiz-adv-x="698" d="M637 0h-178q-170 0 -256 98.5t-86 227.5v1132h336v-1108q0 -68 67 -67h117v-283z" />
<glyph unicode="m" horiz-adv-x="1792" d="M1675 0h-336v659q0 84 -43 118t-92 34t-92 -34t-43 -118v-659h-336v659q0 84 -43 118t-92 34t-92 -34t-43 -118v-659h-336v1102h328v-90q102 102 256 102q166 0 268 -117q133 117 311 117q170 0 264 -94q121 -121 121 -315v-705z" />
<glyph unicode="n" horiz-adv-x="1185" d="M1069 0h-336v659q0 84 -43 118t-92 34t-92 -34t-43 -118v-659h-336v1102h328v-90q102 102 255.5 102t247.5 -94q111 -111 111 -315v-705z" />
<glyph unicode="o" horiz-adv-x="1126" d="M1038 551q0 -164 -25.5 -255t-94.5 -167q-133 -141 -354.5 -141t-354.5 141q-70 76 -95.5 167t-25.5 255q0 162 26.5 255t94.5 167q133 141 354 141t355 -141q68 -74 94 -167t26 -255zM702 551q0 180 -49 229q-31 31 -90 31t-90 -31q-49 -49 -49 -229t49 -229 q31 -31 90.5 -31t89.5 31q49 49 49 229z" />
<glyph unicode="p" horiz-adv-x="1165" d="M1077 551v-25q0 -106 -3 -165.5t-27.5 -142.5t-71.5 -130q-100 -100 -266 -100q-154 0 -246 92v-436h-336v1458h326v-90q102 102 254 102q168 0 268 -100q39 -39 61.5 -89.5t30.5 -129t9 -112.5t1 -132zM741 551q0 137 -26.5 198.5t-112.5 61.5t-112.5 -61.5 t-26.5 -198.5t26.5 -198.5t112.5 -61.5t112.5 61.5t26.5 198.5z" />
<glyph unicode="q" horiz-adv-x="1165" d="M1038 -356h-336v436q-92 -92 -245 -92q-166 0 -267 100q-39 39 -61.5 89t-30.5 129t-9 113t-1 132v24q0 106 3 166t27.5 143t71.5 130q100 100 269 100q152 0 254 -102v90h325v-1458zM702 551q0 137 -26.5 198.5t-112.5 61.5t-112.5 -61.5t-26.5 -198.5t26.5 -198.5 t112.5 -61.5t112.5 61.5t26.5 198.5z" />
<glyph unicode="r" horiz-adv-x="972" d="M973 1012l-254 -258q-57 57 -121 57q-47 0 -91 -35t-44 -117v-659h-336v1102h328v-90q102 102 260 102q156 0 258 -102z" />
<glyph unicode="s" horiz-adv-x="1032" d="M977 360q0 -184 -135 -278t-342 -94q-102 0 -168 7t-153 44t-159 108l218 218q92 -92 268 -93q51 0 97 16.5t46 55.5q0 61 -80 70l-170 16q-319 31 -319 320q0 172 130 268t308 96q299 0 434 -135l-207 -207q-66 66 -233 66q-55 0 -82 -20.5t-27 -43.5q0 -12 1.5 -20.5 t18.5 -22.5t52 -18l170 -17q166 -16 249 -106.5t83 -229.5z" />
<glyph unicode="t" horiz-adv-x="743" d="M662 0h-168q-170 0 -256 98.5t-86 227.5v475h-101v258h101v315h335v-315h175v-258h-175v-451q0 -68 68 -67h107v-283z" />
<glyph unicode="u" horiz-adv-x="1185" d="M1059 0h-328v90q-102 -102 -255.5 -102t-248.5 94q-111 111 -110 315v705h336v-660q0 -84 43 -117.5t92 -33.5t92 33.5t43 117.5v660h336v-1102z" />
<glyph unicode="v" horiz-adv-x="1067" d="M1067 1102l-405 -1102h-256l-406 1102h352l183 -572l180 572h352z" />
<glyph unicode="w" horiz-adv-x="1597" d="M1597 1102l-331 -1102h-269l-198 604l-199 -604h-268l-332 1102h354l138 -572l190 572h233l191 -572l137 572h354z" />
<glyph unicode="x" d="M1139 0h-404l-168 279l-164 -279h-403l383 563l-369 539h404l149 -266l154 266h403l-368 -539z" />
<glyph unicode="y" horiz-adv-x="1052" d="M1069 1102l-457 -1233q-33 -92 -86 -145q-86 -92 -247 -93h-127v303h71q47 0 71.5 16.5t41.5 65.5l31 93l-367 993h352l187 -572l178 572h352z" />
<glyph unicode="z" horiz-adv-x="1001" d="M920 0h-859v248l420 551h-395v303h834v-248l-428 -551h428v-303z" />
<glyph unicode="{" horiz-adv-x="1060" d="M979 -152h-287q-158 0 -243 86q-98 98 -99 240v244q0 88 -35 123q-37 37 -114 37h-119v303h119q78 0 114 37q35 35 35 122v244q0 141 99 240q86 86 243 86h287v-303h-143q-88 0 -117 -29q-33 -33 -33 -131v-213q0 -166 -149 -205q150 -39 149 -205v-213q0 -98 33 -131 q29 -29 117 -28h143v-304z" />
<glyph unicode="|" horiz-adv-x="745" d="M541 -152h-336v1762h336v-1762z" />
<glyph unicode="}" horiz-adv-x="1060" d="M979 578h-119q-78 0 -115 -37q-35 -35 -34 -123v-244q0 -141 -99 -240q-86 -86 -243 -86h-287v304h143q88 0 117 28q33 33 33 131v213q0 166 149 205q-150 39 -149 205v213q0 98 -33 131q-29 29 -117 29h-143v303h287q158 0 243 -86q98 -98 99 -240v-244q0 -88 34 -122 q37 -37 115 -37h119v-303z" />
<glyph unicode="~" horiz-adv-x="1323" d="M1262 580q-104 -104 -191.5 -150.5t-191.5 -46.5q-133 0 -252 70q-88 51 -172 51q-96 0 -181 -84l-213 213q104 104 189.5 150t189.5 46q133 0 252 -69q88 -51 172 -51q96 0 180 84z" />
<glyph unicode="&#xa1;" horiz-adv-x="749" d="M545 -356h-422l90 972h242zM506 772h-344v330h344v-330z" />
<glyph unicode="&#xa2;" horiz-adv-x="1021" d="M985 356q-121 -121 -268 -155v-201h-258v201q-168 39 -274.5 177t-106.5 371.5t106.5 372t274.5 176.5v160h258v-160q147 -35 268 -155l-219 -219q-51 51 -90 67v-483q39 16 90 67zM500 512v475q-16 -12 -25 -20q-61 -66 -61 -217q0 -150 59 -215q17 -17 27 -23z" />
<glyph unicode="&#xa3;" horiz-adv-x="1222" d="M1141 0h-946v569h-123v258h123v131q0 244 162.5 378t385.5 134q129 0 219.5 -35.5t178.5 -123.5l-236 -234q-74 74 -162 74t-139 -50t-51 -151v-123h190v-258h-190v-250h588v-319z" />
<glyph unicode="&#xa4;" horiz-adv-x="1380" d="M1284 233l-223 -223l-150 150q-111 -53 -221 -53.5t-221 53.5l-150 -150l-223 223l150 150q-53 111 -53 221.5t53 220.5l-150 150l223 223l150 -149q111 53 221.5 53t220.5 -53l150 149l223 -223l-149 -150q53 -111 53 -221t-53 -221zM885 604q0 80 -57.5 137.5 t-137.5 57.5t-137 -57.5t-57 -137.5t57 -137t137 -57t137.5 57t57.5 137z" />
<glyph unicode="&#xa5;" horiz-adv-x="1239" d="M1239 1458l-256 -504h123v-258h-256l-51 -102v-102h307v-259h-307v-233h-359v233h-307v259h307v102l-51 102h-256v258h123l-256 504h391l230 -524l227 524h391z" />
<glyph unicode="&#xa6;" horiz-adv-x="745" d="M541 893h-336v717h336v-717zM541 -152h-336v717h336v-717z" />
<glyph unicode="&#xa7;" horiz-adv-x="1056" d="M973 584q0 -94 -53.5 -170t-112.5 -117q145 -88 145 -277q0 -193 -127 -291t-295 -98q-80 0 -150.5 20.5t-134 62.5t-100 120t-36.5 180h319q0 -37 27.5 -63.5t74.5 -26.5q49 0 76 24.5t27 59.5q0 74 -121 119l-111 41q-166 61 -237.5 143t-71.5 248q0 96 54.5 172 t115.5 115q-135 82 -135 258q0 150 101.5 258t306.5 108q209 0 308 -104t99 -266h-311q0 86 -96 86q-47 0 -72 -21.5t-25 -50.5q0 -57 115 -98l111 -41q166 -61 237.5 -143t71.5 -248zM653 571.5q0 71.5 -41 108.5q-31 27 -80 27t-79 -27q-41 -37 -41 -108.5t41 -108.5 q31 -27 80 -27t79 27q41 37 41 108.5z" />
<glyph unicode="&#xa8;" horiz-adv-x="1024" d="M881 1247h-275v297h275v-297zM418 1247h-275v297h275v-297z" />
<glyph unicode="&#xa9;" horiz-adv-x="1683" d="M1583 729q0 -307 -217 -524t-524 -217t-524.5 217t-217.5 524t217.5 524t524.5 217t524 -217t217 -524zM1372 729.5q0 237.5 -150.5 390t-380 152.5t-380 -152.5t-150.5 -390t150.5 -390.5t380 -153t380 153t150.5 390.5zM1130 442q-123 -106 -270 -106 q-154 0 -262.5 99.5t-108.5 294t109 293.5t262 99q147 0 270 -106l-137 -137q-68 55 -133 55q-74 0 -117 -52.5t-43 -152.5t43 -152.5t117 -52.5q66 0 133 56z" />
<glyph unicode="&#xaa;" horiz-adv-x="935" d="M834 580h-263v71q-80 -80 -196 -80q-129 0 -209 80q-78 78 -78 205q0 109 76 182.5t223 73.5h178v23q0 59 -30.5 84.5t-102.5 25.5q-49 0 -76.5 -12t-62.5 -47l-168 168q68 68 137.5 92t183.5 24q387 0 388 -319v-571zM565 909v25h-135q-39 0 -60.5 -19.5t-21.5 -50 t22.5 -51t61.5 -20.5q76 0 107 30q26 27 26 86z" />
<glyph unicode="&#xab;" horiz-adv-x="1376" d="M621 18l-560 555l560 553v-395l-162 -158l162 -159v-396zM1253 18l-559 555l559 553v-395l-166 -158l166 -159v-396z" />
<glyph unicode="&#xac;" d="M1051 180h-316v307h-647v316h963v-623z" />
<glyph unicode="&#xad;" horiz-adv-x="872" d="M772 446h-672v316h672v-316z" />
<glyph unicode="&#xae;" horiz-adv-x="1683" d="M1583 729q0 -307 -217 -524t-524 -217t-524.5 217t-217.5 524t217.5 524t524.5 217t524 -217t217 -524zM1372 729.5q0 237.5 -150.5 390t-380 152.5t-380 -152.5t-150.5 -390t150.5 -390.5t380 -153t380 153t150.5 390.5zM1188 342h-240l-117 289h-63v-289h-211v774h346 q123 0 193.5 -73.5t70.5 -176.5q0 -137 -125 -200zM956 866.5q0 32.5 -22.5 55t-59.5 22.5h-106v-156h106q37 0 59.5 23t22.5 55.5z" />
<glyph unicode="&#xaf;" horiz-adv-x="1024" d="M846 1288h-668v215h668v-215z" />
<glyph unicode="&#xb0;" horiz-adv-x="995" d="M899 1094q0 -166 -117.5 -284t-283.5 -118t-284 118t-118 284t118 283.5t284 117.5t283.5 -117.5t117.5 -283.5zM631 1093.5q0 55.5 -39 94.5t-94.5 39t-94 -39t-38.5 -94.5t38.5 -94t94 -38.5t94.5 38.5t39 94z" />
<glyph unicode="&#xb1;" d="M1038 760h-311v-311h-315v311h-312v315h312v311h315v-311h311v-315zM1038 0h-938v315h938v-315z" />
<glyph unicode="&#xb2;" horiz-adv-x="751" d="M670 584h-588v213l309 315q45 45 45 82q0 27 -16.5 43t-42.5 16q-57 0 -58 -61h-237q0 131 85 202.5t210 71.5q129 0 211 -72.5t82 -199.5q0 -70 -28 -117t-93 -110l-178 -170h299v-213z" />
<glyph unicode="&#xb3;" horiz-adv-x="768" d="M686 852q0 -135 -87 -206t-216 -71q-125 0 -214 71t-87 216h235q-2 -35 16.5 -54.5t49.5 -19.5q66 0 66 72q0 29 -20.5 49.5t-47.5 20.5h-33v203h33q31 0 46 19t15 40q0 29 -17 45t-40 16q-25 0 -42 -16t-15 -47h-238q-2 125 84 200.5t211 75.5q127 0 210 -75.5 t83 -190.5q0 -100 -82 -164q90 -84 90 -184z" />
<glyph unicode="&#xb4;" horiz-adv-x="1024" d="M838 1618l-242 -369h-203l101 369h344z" />
<glyph unicode="&#xb5;" horiz-adv-x="1196" d="M1069 0h-328v90q-102 -102 -256 -102h-22v-344h-336v1458h336v-660q0 -84 43 -117.5t92 -33.5t92 33.5t43 117.5v660h336v-1102z" />
<glyph unicode="&#xb6;" horiz-adv-x="1447" d="M1300 -356h-335v1495h-185v-1495h-336v966q-143 0 -263 123t-120 297q0 213 135.5 320.5t358.5 107.5h745v-1814z" />
<glyph unicode="&#xb7;" horiz-adv-x="602" d="M485 420h-368v368h368v-368z" />
<glyph unicode="&#xb8;" horiz-adv-x="1024" d="M682 -115l-74 -295h-299l137 295h236z" />
<glyph unicode="&#xb9;" horiz-adv-x="636" d="M504 584h-238v608l-194 -168v266l194 168h238v-874z" />
<glyph unicode="&#xba;" horiz-adv-x="954" d="M858 1020q0 -131 -21.5 -205t-76.5 -133q-104 -113 -282.5 -113t-282.5 113q-55 59 -77 133t-22 205q0 129 21.5 203.5t77.5 134.5q104 113 282 112.5t283 -112.5q55 -59 76.5 -134t21.5 -204zM588 1019.5q0 145.5 -39 184.5q-25 25 -72 25t-71 -25q-39 -39 -39 -184.5 t39 -183.5q25 -25 71.5 -25t71.5 25q39 38 39 183.5z" />
<glyph unicode="&#xbb;" horiz-adv-x="1376" d="M1315 573l-559 -555v396l162 159l-162 158v395zM682 573l-559 -555v396l164 159l-164 158v395z" />
<glyph unicode="&#xbc;" horiz-adv-x="1783" d="M1350 1458l-695 -1458h-258l695 1458h258zM1702 109h-53v-109h-224v109h-366v225l282 540h261l-285 -540h108v76h224v-76h53v-225zM504 584h-238v608l-194 -168v266l194 168h238v-874z" />
<glyph unicode="&#xbd;" horiz-adv-x="1851" d="M1350 1458l-695 -1458h-258l695 1458h258zM1769 0h-587v213l309 315q45 45 45 82q0 27 -16.5 43.5t-42.5 16.5q-57 0 -58 -62h-237q0 131 85 203t210 72q129 0 210.5 -73t81.5 -200q0 -70 -27.5 -117t-92.5 -110l-179 -170h299v-213zM504 584h-238v608l-194 -168v266 l194 168h238v-874z" />
<glyph unicode="&#xbe;" horiz-adv-x="1824" d="M1391 1458l-695 -1458h-258l695 1458h258zM686 852q0 -135 -87 -206t-216 -71q-125 0 -214 71t-87 216h235q-2 -35 16.5 -54.5t49.5 -19.5q66 0 66 72q0 29 -20.5 49.5t-47.5 20.5h-33v203h33q31 0 46 19t15 40q0 29 -17 45t-40 16q-25 0 -42 -16t-15 -47h-238 q-2 125 84 200.5t211 75.5q127 0 210 -75.5t83 -190.5q0 -100 -82 -164q90 -84 90 -184zM1743 109h-53v-109h-224v109h-366v225l282 540h260l-284 -540h108v76h224v-76h53v-225z" />
<glyph unicode="&#xbf;" horiz-adv-x="1101" d="M979 63q0 -201 -132 -316.5t-327 -115.5q-193 0 -326 114t-133 316q0 127 105 263l141 178q37 45 37 96v18h336v-47q0 -129 -84 -227l-143 -168q-55 -63 -56 -115q0 -55 32 -90t91 -35q123 0 123 129h336zM684 772h-344v330h344v-330z" />
<glyph unicode="&#xc0;" horiz-adv-x="1337" d="M1337 0h-374l-68 217h-449l-71 -217h-375l530 1458h277zM801 516l-123 389l-131 -389h254zM786 1602h-202l-242 368h344z" />
<glyph unicode="&#xc1;" horiz-adv-x="1337" d="M1337 0h-374l-68 217h-449l-71 -217h-375l530 1458h277zM801 516l-123 389l-131 -389h254zM993 1970l-241 -368h-203l100 368h344z" />
<glyph unicode="&#xc2;" horiz-adv-x="1337" d="M1337 0h-374l-68 217h-449l-71 -217h-375l530 1458h277zM801 516l-123 389l-131 -389h254zM1075 1602h-246l-161 170l-162 -170h-246l279 366h258z" />
<glyph unicode="&#xc3;" horiz-adv-x="1337" d="M1337 0h-374l-68 217h-449l-71 -217h-375l530 1458h277zM801 516l-123 389l-131 -389h254zM1063 1743q-70 -70 -126 -99.5t-126 -29.5q-90 0 -166 45q-59 35 -115 35q-63 0 -118 -56l-140 142q70 70 125.5 99.5t124.5 29.5q90 0 166 -45q59 -35 113 -35q63 0 119 55z" />
<glyph unicode="&#xc4;" horiz-adv-x="1337" d="M1337 0h-374l-68 217h-449l-71 -217h-375l530 1458h277zM801 516l-123 389l-131 -389h254zM1036 1599h-274v297h274v-297zM573 1599h-274v297h274v-297z" />
<glyph unicode="&#xc5;" horiz-adv-x="1337" d="M1337 0h-374l-68 217h-449l-71 -217h-375l530 1458h277zM801 516l-123 389l-131 -389h254zM950 1829q0 -117 -83 -200t-199.5 -83t-199.5 83t-83 200t83 199.5t199.5 82.5t199.5 -81.5t83 -200.5zM774 1829q0 43 -31.5 74.5t-74.5 31.5t-75 -31.5t-32 -74.5t32 -75 t75 -32t74.5 32t31.5 75z" />
<glyph unicode="&#xc6;" horiz-adv-x="2074" d="M1968 0h-991v305h-434l-158 -305h-385l758 1458h1210v-319h-633v-244h541v-320h-541v-256h633v-319zM977 604v535l-279 -535h279z" />
<glyph unicode="&#xc7;" horiz-adv-x="1247" d="M1206 463q-39 -233 -188.5 -354t-364.5 -121q-242 0 -405 164q-45 45 -75 102t-44 100t-21.5 125t-7.5 116v134v134q0 34 7.5 116t21.5 125t44 100.5t75 102.5q164 164 405 163q215 0 364.5 -120.5t188.5 -354.5h-364q-43 156 -187 156q-94 0 -141 -61q-29 -37 -42 -108 t-13 -253t13 -252.5t42 -107.5q47 -61 141 -62q143 0 187 156h364zM788 -115l-73 -295h-299l137 295h235z" />
<glyph unicode="&#xc8;" horiz-adv-x="1245" d="M1139 0h-992v1458h992v-319h-633v-244h541v-320h-541v-256h633v-319zM750 1602h-203l-242 368h344z" />
<glyph unicode="&#xc9;" horiz-adv-x="1245" d="M1139 0h-992v1458h992v-319h-633v-244h541v-320h-541v-256h633v-319zM956 1970l-241 -368h-203l100 368h344z" />
<glyph unicode="&#xca;" horiz-adv-x="1245" d="M1139 0h-992v1458h992v-319h-633v-244h541v-320h-541v-256h633v-319zM1038 1602h-245l-162 170l-162 -170h-246l279 366h258z" />
<glyph unicode="&#xcb;" horiz-adv-x="1245" d="M1139 0h-992v1458h992v-319h-633v-244h541v-320h-541v-256h633v-319zM999 1599h-274v297h274v-297zM537 1599h-275v297h275v-297z" />
<glyph unicode="&#xcc;" horiz-adv-x="653" d="M506 0h-359v1458h359v-1458zM446 1602h-202l-242 368h344z" />
<glyph unicode="&#xcd;" horiz-adv-x="653" d="M506 0h-359v1458h359v-1458zM651 1970l-241 -368h-203l100 368h344z" />
<glyph unicode="&#xce;" horiz-adv-x="653" d="M506 0h-359v1458h359v-1458zM737 1602h-245l-162 170l-162 -170h-246l279 366h258z" />
<glyph unicode="&#xcf;" horiz-adv-x="653" d="M506 0h-359v1458h359v-1458zM698 1599h-274v297h274v-297zM236 1599h-275v297h275v-297z" />
<glyph unicode="&#xd0;" horiz-adv-x="1390" d="M1290 729v-74v-74q0 -19 -1 -66.5t-6 -69t-11 -61.5t-19 -66l-27 -58q-15 -33 -37 -60.5t-50 -56.5q-143 -143 -394 -143h-540v600h-133v274h133v584h540q250 0 394 -143q31 -31 55.5 -67t39.5 -62.5t26.5 -72.5t17.5 -66.5t9 -79t3 -71.5v-85v-82zM932 729 q0 176 -8.5 235.5t-30.5 92.5q-55 82 -172 82h-158v-265h185v-274h-185v-281h158q117 0 172 82q23 33 31 92.5t8 235.5z" />
<glyph unicode="&#xd1;" horiz-adv-x="1433" d="M1286 0h-313l-467 733v-733h-359v1458h314l467 -733v733h358v-1458zM1112 1743q-70 -70 -126 -99.5t-126 -29.5q-90 0 -166 45q-59 35 -114 35q-63 0 -119 -56l-139 142q70 70 125 99.5t124 29.5q90 0 166 -45q59 -35 113 -35q63 0 119 55z" />
<glyph unicode="&#xd2;" horiz-adv-x="1310" d="M1210 729v-134q0 -34 -7 -116t-21.5 -125t-44 -100t-74.5 -102q-164 -164 -407.5 -164t-407.5 164q-45 45 -75 102t-44 100t-21.5 125t-7.5 116v134v134q0 34 7.5 116t21.5 125t44 100.5t75 102.5q164 164 407.5 163.5t407.5 -163.5q45 -45 74.5 -102.5t44 -100.5 t21.5 -125t7 -116v-134zM852 729q0 184 -12.5 253t-40.5 105q-49 63 -143.5 63.5t-143.5 -63.5q-29 -37 -41 -105.5t-12 -252.5t12 -251.5t41 -104.5q49 -66 143.5 -66t143.5 66q29 37 41 104.5t12 251.5zM774 1602h-203l-241 368h344z" />
<glyph unicode="&#xd3;" horiz-adv-x="1310" d="M1210 729v-134q0 -34 -7 -116t-21.5 -125t-44 -100t-74.5 -102q-164 -164 -407.5 -164t-407.5 164q-45 45 -75 102t-44 100t-21.5 125t-7.5 116v134v134q0 34 7.5 116t21.5 125t44 100.5t75 102.5q164 164 407.5 163.5t407.5 -163.5q45 -45 74.5 -102.5t44 -100.5 t21.5 -125t7 -116v-134zM852 729q0 184 -12.5 253t-40.5 105q-49 63 -143.5 63.5t-143.5 -63.5q-29 -37 -41 -105.5t-12 -252.5t12 -251.5t41 -104.5q49 -66 143.5 -66t143.5 66q29 37 41 104.5t12 251.5zM981 1970l-242 -368h-202l100 368h344z" />
<glyph unicode="&#xd4;" horiz-adv-x="1310" d="M1210 729v-134q0 -34 -7 -116t-21.5 -125t-44 -100t-74.5 -102q-164 -164 -407.5 -164t-407.5 164q-45 45 -75 102t-44 100t-21.5 125t-7.5 116v134v134q0 34 7.5 116t21.5 125t44 100.5t75 102.5q164 164 407.5 163.5t407.5 -163.5q45 -45 74.5 -102.5t44 -100.5 t21.5 -125t7 -116v-134zM852 729q0 184 -12.5 253t-40.5 105q-49 63 -143.5 63.5t-143.5 -63.5q-29 -37 -41 -105.5t-12 -252.5t12 -251.5t41 -104.5q49 -66 143.5 -66t143.5 66q29 37 41 104.5t12 251.5zM1063 1602h-246l-162 170l-161 -170h-246l278 366h258z" />
<glyph unicode="&#xd5;" horiz-adv-x="1310" d="M1210 729v-134q0 -34 -7 -116t-21.5 -125t-44 -100t-74.5 -102q-164 -164 -407.5 -164t-407.5 164q-45 45 -75 102t-44 100t-21.5 125t-7.5 116v134v134q0 34 7.5 116t21.5 125t44 100.5t75 102.5q164 164 407.5 163.5t407.5 -163.5q45 -45 74.5 -102.5t44 -100.5 t21.5 -125t7 -116v-134zM852 729q0 184 -12.5 253t-40.5 105q-49 63 -143.5 63.5t-143.5 -63.5q-29 -37 -41 -105.5t-12 -252.5t12 -251.5t41 -104.5q49 -66 143.5 -66t143.5 66q29 37 41 104.5t12 251.5zM1051 1743q-70 -70 -126.5 -99.5t-125.5 -29.5q-90 0 -166 45 q-59 35 -115 35q-63 0 -119 -56l-139 142q70 70 125 99.5t125 29.5q90 0 166 -45q59 -35 112 -35q63 0 119 55z" />
<glyph unicode="&#xd6;" horiz-adv-x="1310" d="M1210 729v-134q0 -34 -7 -116t-21.5 -125t-44 -100t-74.5 -102q-164 -164 -407.5 -164t-407.5 164q-45 45 -75 102t-44 100t-21.5 125t-7.5 116v134v134q0 34 7.5 116t21.5 125t44 100.5t75 102.5q164 164 407.5 163.5t407.5 -163.5q45 -45 74.5 -102.5t44 -100.5 t21.5 -125t7 -116v-134zM852 729q0 184 -12.5 253t-40.5 105q-49 63 -143.5 63.5t-143.5 -63.5q-29 -37 -41 -105.5t-12 -252.5t12 -251.5t41 -104.5q49 -66 143.5 -66t143.5 66q29 37 41 104.5t12 251.5zM1024 1599h-274v297h274v-297zM561 1599h-274v297h274v-297z" />
<glyph unicode="&#xd7;" d="M1059 330l-213 -213l-277 276l-274 -276l-215 213l278 274l-278 277l213 213l274 -277l277 277l215 -213l-279 -277z" />
<glyph unicode="&#xd8;" horiz-adv-x="1310" d="M1210 729v-134q0 -34 -7 -116t-21.5 -125t-44 -100t-74.5 -102q-164 -164 -408 -164q-123 0 -215 37l-55 -115h-242l113 233l-8 9q-45 45 -75 102t-44 100t-21.5 125t-7.5 116v134v134q0 34 7.5 116t21.5 125t44 100.5t75 102.5q164 164 407 163q123 0 215 -36l56 114 h241l-112 -233l8 -8q45 -45 74.5 -102.5t44 -100.5t21.5 -125t7 -116v-134zM852 729q0 119 -6 191l-281 -590q39 -23 90 -23q94 0 144 66q29 37 41 104.5t12 251.5zM745 1130q-41 20 -90 21q-94 0 -143 -64q-29 -37 -41 -105.5t-12 -252.5q0 -119 6 -190z" />
<glyph unicode="&#xd9;" horiz-adv-x="1351" d="M1229 512q0 -233 -161 -378.5t-394.5 -145.5t-392 145.5t-158.5 378.5v946h358v-938q0 -100 51.5 -156.5t141.5 -56.5t143 56.5t53 156.5v938h359v-946zM795 1602h-203l-242 368h344z" />
<glyph unicode="&#xda;" horiz-adv-x="1351" d="M1229 512q0 -233 -161 -378.5t-394.5 -145.5t-392 145.5t-158.5 378.5v946h358v-938q0 -100 51.5 -156.5t141.5 -56.5t143 56.5t53 156.5v938h359v-946zM1001 1970l-241 -368h-203l100 368h344z" />
<glyph unicode="&#xdb;" horiz-adv-x="1351" d="M1229 512q0 -233 -161 -378.5t-394.5 -145.5t-392 145.5t-158.5 378.5v946h358v-938q0 -100 51.5 -156.5t141.5 -56.5t143 56.5t53 156.5v938h359v-946zM1083 1602h-245l-162 170l-162 -170h-246l279 366h258z" />
<glyph unicode="&#xdc;" horiz-adv-x="1351" d="M1229 512q0 -233 -161 -378.5t-394.5 -145.5t-392 145.5t-158.5 378.5v946h358v-938q0 -100 51.5 -156.5t141.5 -56.5t143 56.5t53 156.5v938h359v-946zM1044 1599h-274v297h274v-297zM582 1599h-275v297h275v-297z" />
<glyph unicode="&#xdd;" horiz-adv-x="1239" d="M1239 1458l-440 -864v-594h-359v594l-440 864h391l230 -524l227 524h391zM944 1970l-242 -368h-202l100 368h344z" />
<glyph unicode="&#xde;" horiz-adv-x="1284" d="M1223 737.5q0 -192.5 -133.5 -331t-364.5 -138.5h-219v-268h-359v1458h359v-252h219q231 0 364.5 -138t133.5 -330.5zM864 737.5q0 59.5 -43 103.5t-112 44h-203v-295h203q70 0 112.5 44t42.5 103.5z" />
<glyph unicode="&#xdf;" horiz-adv-x="1196" d="M1094 354q0 -174 -86 -262q-92 -92 -283 -92h-107v283h39q47 0 72 24q27 25 27 74v264q0 47 -25 72q-25 27 -74 26h-39v258h48q90 0 90 86q0 39 -25 60q-35 31 -113 31q-86 0 -119.5 -35t-33.5 -109v-1034h-338v1063q0 213 134 310t357 97q219 0 347.5 -92t128.5 -278 q0 -152 -125 -223q125 -61 125 -211v-312z" />
<glyph unicode="&#xe0;" horiz-adv-x="1097" d="M989 0h-327v90q-53 -53 -107.5 -76.5t-138.5 -23.5q-166 0 -264 98q-96 96 -97 258q0 135 95.5 227.5t279.5 92.5h223v28q0 74 -39 105.5t-127 31.5q-61 0 -98 -16t-78 -57l-209 209q84 84 172 115.5t230 31.5q485 0 485 -399v-715zM653 414v28h-170q-49 0 -77.5 -24.5 t-28.5 -63.5t28.5 -65.5t81.5 -26.5q90 0 134 41q32 31 32 111zM664 1249h-203l-242 369h344z" />
<glyph unicode="&#xe1;" horiz-adv-x="1097" d="M989 0h-327v90q-53 -53 -107.5 -76.5t-138.5 -23.5q-166 0 -264 98q-96 96 -97 258q0 135 95.5 227.5t279.5 92.5h223v28q0 74 -39 105.5t-127 31.5q-61 0 -98 -16t-78 -57l-209 209q84 84 172 115.5t230 31.5q485 0 485 -399v-715zM653 414v28h-170q-49 0 -77.5 -24.5 t-28.5 -63.5t28.5 -65.5t81.5 -26.5q90 0 134 41q32 31 32 111zM870 1618l-241 -369h-203l100 369h344z" />
<glyph unicode="&#xe2;" horiz-adv-x="1097" d="M989 0h-327v90q-53 -53 -107.5 -76.5t-138.5 -23.5q-166 0 -264 98q-96 96 -97 258q0 135 95.5 227.5t279.5 92.5h223v28q0 74 -39 105.5t-127 31.5q-61 0 -98 -16t-78 -57l-209 209q84 84 172 115.5t230 31.5q485 0 485 -399v-715zM653 414v28h-170q-49 0 -77.5 -24.5 t-28.5 -63.5t28.5 -65.5t81.5 -26.5q90 0 134 41q32 31 32 111zM952 1249h-245l-162 170l-162 -170h-246l279 367h258z" />
<glyph unicode="&#xe3;" horiz-adv-x="1097" d="M989 0h-327v90q-53 -53 -107.5 -76.5t-138.5 -23.5q-166 0 -264 98q-96 96 -97 258q0 135 95.5 227.5t279.5 92.5h223v28q0 74 -39 105.5t-127 31.5q-61 0 -98 -16t-78 -57l-209 209q84 84 172 115.5t230 31.5q485 0 485 -399v-715zM653 414v28h-170q-49 0 -77.5 -24.5 t-28.5 -63.5t28.5 -65.5t81.5 -26.5q90 0 134 41q32 31 32 111zM940 1391q-70 -70 -126 -99.5t-126 -29.5q-90 0 -166 45q-59 35 -114 34q-63 0 -119 -55l-139 141q70 70 125 99.5t124 29.5q90 0 166 -45q59 -35 113 -34q63 0 119 55z" />
<glyph unicode="&#xe4;" horiz-adv-x="1097" d="M989 0h-327v90q-53 -53 -107.5 -76.5t-138.5 -23.5q-166 0 -264 98q-96 96 -97 258q0 135 95.5 227.5t279.5 92.5h223v28q0 74 -39 105.5t-127 31.5q-61 0 -98 -16t-78 -57l-209 209q84 84 172 115.5t230 31.5q485 0 485 -399v-715zM653 414v28h-170q-49 0 -77.5 -24.5 t-28.5 -63.5t28.5 -65.5t81.5 -26.5q90 0 134 41q32 31 32 111zM913 1247h-274v297h274v-297zM451 1247h-275v297h275v-297z" />
<glyph unicode="&#xe5;" horiz-adv-x="1097" d="M989 0h-327v90q-53 -53 -107.5 -76.5t-138.5 -23.5q-166 0 -264 98q-96 96 -97 258q0 135 95.5 227.5t279.5 92.5h223v28q0 74 -39 105.5t-127 31.5q-61 0 -98 -16t-78 -57l-209 209q84 84 172 115.5t230 31.5q485 0 485 -399v-715zM653 414v28h-170q-49 0 -77.5 -24.5 t-28.5 -63.5t28.5 -65.5t81.5 -26.5q90 0 134 41q32 31 32 111zM827 1497q0 -117 -82.5 -200t-199.5 -83t-200 83t-83 200t83 200t200 83t199.5 -82t82.5 -201zM651 1497q0 43 -31.5 75t-74.5 32t-75 -32t-32 -75t32 -74.5t75 -31.5t74.5 31.5t31.5 74.5z" />
<glyph unicode="&#xe6;" horiz-adv-x="1720" d="M1642 442h-659q0 -72 52 -122t143 -50q82 0 130 21.5t97 70.5l201 -200q-90 -90 -186.5 -132t-241.5 -42q-252 0 -385 133q-92 -84 -174 -108.5t-203 -24.5q-164 0 -264 100q-96 96 -97 258q0 135 95.5 227.5t279.5 92.5h223v28q0 74 -39 105.5t-127 31.5q-61 0 -98 -16 t-78 -57l-209 209q84 84 172 115.5t230 31.5q229 0 348 -92q119 92 295 92q231 0 363 -148.5t132 -373.5v-150zM1311 666q0 49 -19 86q-37 86 -145.5 86t-145.5 -86q-18 -37 -18 -86h328zM653 414v28h-170q-49 0 -77.5 -24.5t-28.5 -63.5t28.5 -65.5t81.5 -26.5q90 0 134 41 q32 31 32 111z" />
<glyph unicode="&#xe7;" horiz-adv-x="972" d="M936 129q-141 -141 -363 -141q-66 0 -126 11t-129.5 48t-121 96.5t-85 165t-33.5 242.5t33.5 242.5t85 165t121 96.5t130 48t125.5 11q221 0 363 -141l-227 -228q-66 66 -136 66q-61 0 -104 -43q-55 -57 -55 -217t55 -217q43 -43 104 -43q70 0 136 65zM682 -115l-74 -295 h-299l137 295h236z" />
<glyph unicode="&#xe8;" horiz-adv-x="1144" d="M1067 442h-659q0 -72 52 -122t142 -50q82 0 130 21.5t97 70.5l201 -200q-90 -90 -186 -132t-242 -42q-524 0 -524 563q0 264 136 413.5t357 149.5q231 0 363.5 -148.5t132.5 -373.5v-150zM735 666q0 49 -18 86q-37 86 -145.5 86t-145.5 -86q-18 -37 -18 -86h327z M698 1249h-202l-242 369h344z" />
<glyph unicode="&#xe9;" horiz-adv-x="1144" d="M1067 442h-659q0 -72 52 -122t142 -50q82 0 130 21.5t97 70.5l201 -200q-90 -90 -186 -132t-242 -42q-524 0 -524 563q0 264 136 413.5t357 149.5q231 0 363.5 -148.5t132.5 -373.5v-150zM735 666q0 49 -18 86q-37 86 -145.5 86t-145.5 -86q-18 -37 -18 -86h327z M905 1618l-241 -369h-203l100 369h344z" />
<glyph unicode="&#xea;" horiz-adv-x="1144" d="M1067 442h-659q0 -72 52 -122t142 -50q82 0 130 21.5t97 70.5l201 -200q-90 -90 -186 -132t-242 -42q-524 0 -524 563q0 264 136 413.5t357 149.5q231 0 363.5 -148.5t132.5 -373.5v-150zM735 666q0 49 -18 86q-37 86 -145.5 86t-145.5 -86q-18 -37 -18 -86h327z M987 1249h-246l-161 170l-162 -170h-246l279 367h258z" />
<glyph unicode="&#xeb;" horiz-adv-x="1144" d="M1067 442h-659q0 -72 52 -122t142 -50q82 0 130 21.5t97 70.5l201 -200q-90 -90 -186 -132t-242 -42q-524 0 -524 563q0 264 136 413.5t357 149.5q231 0 363.5 -148.5t132.5 -373.5v-150zM735 666q0 49 -18 86q-37 86 -145.5 86t-145.5 -86q-18 -37 -18 -86h327z M948 1247h-274v297h274v-297zM485 1247h-274v297h274v-297z" />
<glyph unicode="&#xec;" horiz-adv-x="589" d="M463 0h-336v1059h336v-1059zM446 1249h-202l-242 369h344z" />
<glyph unicode="&#xed;" horiz-adv-x="589" d="M463 0h-336v1059h336v-1059zM588 1618l-242 -369h-203l101 369h344z" />
<glyph unicode="&#xee;" horiz-adv-x="589" d="M463 0h-336v1059h336v-1059zM707 1249h-246l-162 170l-162 -170h-246l279 367h258z" />
<glyph unicode="&#xef;" horiz-adv-x="589" d="M463 0h-336v1059h336v-1059zM668 1247h-275v297h275v-297zM205 1247h-275v297h275v-297z" />
<glyph unicode="&#xf0;" horiz-adv-x="1126" d="M1022 530q0 -158 -24.5 -246.5t-92.5 -160.5q-127 -135 -342 -135t-342 135q-68 72 -92.5 161t-24.5 246.5t25 246.5t92 161q55 59 141 96q76 35 158 37l-41 82h-231v233h117l-46 95h361l45 -95h199v-233h-84l53 -117q76 -168 102.5 -262t26.5 -244zM686 530 q0 168 -43 211q-29 29 -80 29t-80 -29q-43 -43 -43 -211t43 -211q29 -29 80 -28.5t80 28.5q43 43 43 211z" />
<glyph unicode="&#xf1;" horiz-adv-x="1185" d="M1069 0h-336v659q0 84 -43 118t-92 34t-92 -34t-43 -118v-659h-336v1102h328v-90q102 102 255.5 102t247.5 -94q111 -111 111 -315v-705zM993 1391q-70 -70 -126 -99.5t-126 -29.5q-90 0 -166 45q-59 35 -114 34q-63 0 -119 -55l-139 141q70 70 125 99.5t125 29.5 q90 0 165 -45q59 -35 113 -34q63 0 119 55z" />
<glyph unicode="&#xf2;" horiz-adv-x="1126" d="M1038 551q0 -164 -25.5 -255t-94.5 -167q-133 -141 -354.5 -141t-354.5 141q-70 76 -95.5 167t-25.5 255q0 162 26.5 255t94.5 167q133 141 354 141t355 -141q68 -74 94 -167t26 -255zM702 551q0 180 -49 229q-31 31 -90 31t-90 -31q-49 -49 -49 -229t49 -229 q31 -31 90.5 -31t89.5 31q49 49 49 229zM682 1249h-203l-241 369h344z" />
<glyph unicode="&#xf3;" horiz-adv-x="1126" d="M1038 551q0 -164 -25.5 -255t-94.5 -167q-133 -141 -354.5 -141t-354.5 141q-70 76 -95.5 167t-25.5 255q0 162 26.5 255t94.5 167q133 141 354 141t355 -141q68 -74 94 -167t26 -255zM702 551q0 180 -49 229q-31 31 -90 31t-90 -31q-49 -49 -49 -229t49 -229 q31 -31 90.5 -31t89.5 31q49 49 49 229zM889 1618l-242 -369h-203l101 369h344z" />
<glyph unicode="&#xf4;" horiz-adv-x="1126" d="M1038 551q0 -164 -25.5 -255t-94.5 -167q-133 -141 -354.5 -141t-354.5 141q-70 76 -95.5 167t-25.5 255q0 162 26.5 255t94.5 167q133 141 354 141t355 -141q68 -74 94 -167t26 -255zM702 551q0 180 -49 229q-31 31 -90 31t-90 -31q-49 -49 -49 -229t49 -229 q31 -31 90.5 -31t89.5 31q49 49 49 229zM971 1249h-246l-162 170l-162 -170h-245l278 367h258z" />
<glyph unicode="&#xf5;" horiz-adv-x="1126" d="M1038 551q0 -164 -25.5 -255t-94.5 -167q-133 -141 -354.5 -141t-354.5 141q-70 76 -95.5 167t-25.5 255q0 162 26.5 255t94.5 167q133 141 354 141t355 -141q68 -74 94 -167t26 -255zM702 551q0 180 -49 229q-31 31 -90 31t-90 -31q-49 -49 -49 -229t49 -229 q31 -31 90.5 -31t89.5 31q49 49 49 229zM958 1391q-70 -70 -126 -99.5t-125 -29.5q-90 0 -166 45q-59 35 -115 34q-63 0 -119 -55l-139 141q70 70 125 99.5t125 29.5q90 0 166 -45q59 -35 112 -34q63 0 119 55z" />
<glyph unicode="&#xf6;" horiz-adv-x="1126" d="M1038 551q0 -164 -25.5 -255t-94.5 -167q-133 -141 -354.5 -141t-354.5 141q-70 76 -95.5 167t-25.5 255q0 162 26.5 255t94.5 167q133 141 354 141t355 -141q68 -74 94 -167t26 -255zM702 551q0 180 -49 229q-31 31 -90 31t-90 -31q-49 -49 -49 -229t49 -229 q31 -31 90.5 -31t89.5 31q49 49 49 229zM932 1247h-275v297h275v-297zM469 1247h-274v297h274v-297z" />
<glyph unicode="&#xf7;" d="M1051 446h-963v316h963v-316zM729 0h-319v319h319v-319zM729 889h-319v319h319v-319z" />
<glyph unicode="&#xf8;" horiz-adv-x="1126" d="M1038 551q0 -164 -25.5 -255t-94.5 -167q-133 -141 -355 -141q-117 0 -213 41l-69 -119h-191l125 213q-82 86 -104.5 180t-22.5 248q0 162 26.5 255t94.5 167q133 141 354 141q117 0 213 -41l70 119h190l-125 -213q80 -86 103.5 -182t23.5 -246zM702 551q0 74 -4 102 l-204 -348q27 -14 69 -14q59 0 90 31q49 49 49 229zM633 797q-27 14 -70 14q-59 0 -90 -31q-49 -49 -49 -229q0 -74 4 -102z" />
<glyph unicode="&#xf9;" horiz-adv-x="1185" d="M1059 0h-328v90q-102 -102 -255.5 -102t-248.5 94q-111 111 -110 315v705h336v-660q0 -84 43 -117.5t92 -33.5t92 33.5t43 117.5v660h336v-1102zM707 1249h-203l-242 369h344z" />
<glyph unicode="&#xfa;" horiz-adv-x="1185" d="M1059 0h-328v90q-102 -102 -255.5 -102t-248.5 94q-111 111 -110 315v705h336v-660q0 -84 43 -117.5t92 -33.5t92 33.5t43 117.5v660h336v-1102zM913 1618l-241 -369h-203l100 369h344z" />
<glyph unicode="&#xfb;" horiz-adv-x="1185" d="M1059 0h-328v90q-102 -102 -255.5 -102t-248.5 94q-111 111 -110 315v705h336v-660q0 -84 43 -117.5t92 -33.5t92 33.5t43 117.5v660h336v-1102zM995 1249h-245l-162 170l-162 -170h-246l279 367h258z" />
<glyph unicode="&#xfc;" horiz-adv-x="1185" d="M1059 0h-328v90q-102 -102 -255.5 -102t-248.5 94q-111 111 -110 315v705h336v-660q0 -84 43 -117.5t92 -33.5t92 33.5t43 117.5v660h336v-1102zM956 1247h-274v297h274v-297zM494 1247h-275v297h275v-297z" />
<glyph unicode="&#xfd;" horiz-adv-x="1052" d="M1069 1102l-457 -1233q-33 -92 -86 -145q-86 -92 -247 -93h-127v303h71q47 0 71.5 16.5t41.5 65.5l31 93l-367 993h352l187 -572l178 572h352zM862 1618l-241 -369h-203l100 369h344z" />
<glyph unicode="&#xfe;" horiz-adv-x="1169" d="M1077 551v-25q0 -106 -3 -165.5t-27.5 -142.5t-71.5 -130q-100 -100 -266 -100q-154 0 -246 92v-436h-336v1814h336v-436q92 92 246 92q166 0 266 -100q39 -39 61.5 -89.5t30.5 -129t9 -112.5t1 -132zM741 551q0 137 -26.5 198.5t-112.5 61.5t-112.5 -61.5t-26.5 -198.5 t26.5 -198.5t112.5 -61.5t112.5 61.5t26.5 198.5z" />
<glyph unicode="&#xff;" horiz-adv-x="1052" d="M1069 1102l-457 -1233q-33 -92 -86 -145q-86 -92 -247 -93h-127v303h71q47 0 71.5 16.5t41.5 65.5l31 93l-367 993h352l187 -572l178 572h352zM905 1247h-274v297h274v-297zM442 1247h-274v297h274v-297z" />
<glyph unicode="&#x152;" horiz-adv-x="1949" d="M1843 0h-991v53q-70 -66 -209 -65q-131 0 -222 36.5t-173 118.5q-43 43 -73 100.5t-44 104.5t-21.5 126t-8.5 122t-1 133t1 133t8.5 122t21.5 126t44 104.5t73 100.5q82 82 174 118.5t223 36.5q137 0 207 -65v53h991v-319h-633v-244h541v-320h-541v-256h633v-319z M852 729q0 184 -12.5 253t-40.5 105q-49 63 -143.5 63.5t-143.5 -63.5q-29 -37 -41 -105.5t-12 -252.5t12 -251.5t41 -104.5q49 -66 143.5 -66t143.5 66q29 37 41 104.5t12 251.5z" />
<glyph unicode="&#x153;" horiz-adv-x="1769" d="M1692 442h-660q0 -72 52.5 -122t142.5 -50q82 0 130 21.5t97 70.5l201 -200q-90 -90 -186.5 -132t-241.5 -42q-223 0 -350 102q-125 -102 -314 -102q-221 0 -354 141q-70 76 -95.5 167t-25.5 255q0 162 26.5 255t94.5 167q133 141 354 141q193 0 320 -108 q125 109 313 108q231 0 363.5 -148.5t132.5 -373.5v-150zM702 551q0 180 -49 229q-31 31 -90 31t-90 -31q-49 -49 -49 -229t49 -229q31 -31 90.5 -31t89.5 31q49 49 49 229zM1360 666q0 49 -19 86q-37 86 -145.5 86t-144.5 -86q-18 -37 -19 -86h328z" />
<glyph unicode="&#x178;" horiz-adv-x="1239" d="M1239 1458l-440 -864v-594h-359v594l-440 864h391l230 -524l227 524h391zM987 1599h-274v297h274v-297zM524 1599h-274v297h274v-297z" />
<glyph unicode="&#x2c6;" horiz-adv-x="1024" d="M920 1249h-246l-162 170l-162 -170h-246l279 367h258z" />
<glyph unicode="&#x2dc;" horiz-adv-x="1024" d="M958 1391q-70 -70 -126 -99.5t-125 -29.5q-90 0 -166 45q-59 35 -115 34q-63 0 -119 -55l-139 141q70 70 125 99.5t125 29.5q90 0 166 -45q59 -35 112 -34q63 0 119 55z" />
<glyph unicode="&#x2000;" horiz-adv-x="1054" />
<glyph unicode="&#x2001;" horiz-adv-x="2111" />
<glyph unicode="&#x2002;" horiz-adv-x="1054" />
<glyph unicode="&#x2003;" horiz-adv-x="2111" />
<glyph unicode="&#x2004;" horiz-adv-x="702" />
<glyph unicode="&#x2005;" horiz-adv-x="526" />
<glyph unicode="&#x2006;" horiz-adv-x="350" />
<glyph unicode="&#x2007;" horiz-adv-x="350" />
<glyph unicode="&#x2008;" horiz-adv-x="262" />
<glyph unicode="&#x2009;" horiz-adv-x="421" />
<glyph unicode="&#x200a;" horiz-adv-x="116" />
<glyph unicode="&#x2010;" horiz-adv-x="872" d="M772 446h-672v316h672v-316z" />
<glyph unicode="&#x2011;" horiz-adv-x="872" d="M772 446h-672v316h672v-316z" />
<glyph unicode="&#x2012;" horiz-adv-x="872" d="M772 446h-672v316h672v-316z" />
<glyph unicode="&#x2013;" d="M1038 446h-938v316h938v-316z" />
<glyph unicode="&#x2014;" horiz-adv-x="2238" d="M2138 451h-2038v323h2038v-323z" />
<glyph unicode="&#x2018;" horiz-adv-x="569" d="M453 1159h-336v299l336 246v-545z" />
<glyph unicode="&#x2019;" horiz-adv-x="569" d="M453 1157l-336 -242v543h336v-301z" />
<glyph unicode="&#x201a;" horiz-adv-x="565" d="M453 0l-336 -242v543h336v-301z" />
<glyph unicode="&#x201c;" horiz-adv-x="1046" d="M930 1159h-336v299l336 246v-545zM451 1159h-334v299l334 246v-545z" />
<glyph unicode="&#x201d;" horiz-adv-x="1046" d="M930 1157l-336 -242v543h336v-301zM451 1157l-334 -242v543h334v-301z" />
<glyph unicode="&#x201e;" horiz-adv-x="1052" d="M930 0l-336 -242v543h336v-301zM451 0l-334 -242v543h334v-301z" />
<glyph unicode="&#x2022;" horiz-adv-x="962" d="M815 684q0 -139 -98.5 -236.5t-235.5 -97.5t-235.5 97.5t-98.5 236.5t98.5 236.5t235.5 97.5t235.5 -97.5t98.5 -236.5z" />
<glyph unicode="&#x2026;" horiz-adv-x="1841" d="M1724 0h-348v348h348v-348zM465 0h-348v348h348v-348zM1094 0h-349v348h349v-348z" />
<glyph unicode="&#x202f;" horiz-adv-x="421" />
<glyph unicode="&#x2039;" horiz-adv-x="743" d="M621 18l-560 555l560 553v-395l-162 -158l162 -159v-396z" />
<glyph unicode="&#x203a;" horiz-adv-x="743" d="M682 573l-559 -555v396l164 159l-164 158v395z" />
<glyph unicode="&#x205f;" horiz-adv-x="526" />
<glyph unicode="&#x20ac;" horiz-adv-x="1409" d="M1323 463q-39 -233 -188.5 -354t-364.5 -121q-242 0 -405 164q-113 113 -138 307h-155v209h145v127h-145v209h155q25 190 138 303q164 164 405 163q215 0 364.5 -120.5t188.5 -354.5h-365q-43 156 -186 156q-94 0 -141 -61q-29 -41 -37 -86h219v-209h-238v-127h238v-209 h-221q12 -57 39 -90q47 -61 141 -62q143 0 186 156h365z" />
<glyph unicode="&#x2122;" horiz-adv-x="1992" d="M1855 584h-239v448l-137 -268h-205l-137 268v-448h-240v874h240l239 -430l240 430h239v-874zM772 1245h-215v-661h-238v661h-215v213h668v-213z" />
<glyph unicode="&#xe000;" horiz-adv-x="1100" d="M0 1100h1100v-1100h-1100v1100z" />
<glyph unicode="&#xfb01;" horiz-adv-x="1282" d="M672 801h-185v-801h-335v801h-101v258h101v96q0 129 86 227.5t256 98.5h178v-283h-117q-68 0 -68 -68v-71h185v-258zM1155 0h-336v1059h336v-1059zM1155 1214h-336v256h336v-256z" />
<glyph unicode="&#xfb02;" horiz-adv-x="1380" d="M672 801h-185v-801h-335v801h-101v258h101v96q0 129 86 227.5t256 98.5h178v-283h-117q-68 0 -68 -68v-71h185v-258zM1339 0h-178q-170 0 -256 98.5t-86 227.5v1132h336v-1108q0 -68 68 -67h116v-283z" />
<glyph unicode="&#xfb03;" horiz-adv-x="2056" d="M1929 0h-336v1059h336v-1059zM1929 1214h-336v256h336v-256zM1415 801h-184v-801h-336v801h-101v258h101v96q0 129 86 227.5t256 98.5h178v-283h-117q-68 0 -67 -68v-71h184v-258zM682 801h-184v-801h-336v801h-101v258h101v96q0 129 86 227.5t256 98.5h178v-283h-117 q-68 0 -67 -68v-71h184v-258z" />
<glyph unicode="&#xfb04;" horiz-adv-x="2164" d="M2103 0h-178q-170 0 -256 98.5t-86 227.5v1132h336v-1108q0 -68 67 -67h117v-283zM1415 801h-184v-801h-336v801h-101v258h101v96q0 129 86 227.5t256 98.5h178v-283h-117q-68 0 -67 -68v-71h184v-258zM682 801h-184v-801h-336v801h-101v258h101v96q0 129 86 227.5 t256 98.5h178v-283h-117q-68 0 -67 -68v-71h184v-258z" />
</font>
</defs>
</svg>
